# xmcd
#
# Track frame offsets:
# 150
# 13616
# 25632
# 43996
# 56526
# 78415
# 99898
# 116746
# 133102
# 145567
# 165130
# 179850
# 197158
#
# Disc length: 2864 seconds
#
#
# Revision: 0
# Processed by: cddbd v1.4PL0 Copyright (c) Steve Scherf et al.
# Submitted via: FreeRIP 2.35 
#
DISCID=a70b2e0d
DTITLE=Garth Brooks - Double Live [CD 1)
DYEAR=1900
DGENRE=Country
TTITLE0=Callin' Baton Rogue
TTITLE1=Two Of A Kind (Workin' On A Full House)
TTITLE2=Shameless
TTITLE3=Papa Loved Mama
TTITLE4=The Thunder Rolls
TTITLE5=We Shall Be Free
TTITLE6=Unanswered Prayers
TTITLE7=Standing Outside The Fire
TTITLE8=Longneck Bottle
TTITLE9=It's Your Song
TTITLE10=Much Too Young (To Feel This Damn Old)
TTITLE11=The River
TTITLE12=Tearin' It Up (And Burnin' It Down)
EXTD=
EXTT0=
EXTT1=
EXTT2=
EXTT3=
EXTT4=
EXTT5=
EXTT6=
EXTT7=
EXTT8=
EXTT9=
EXTT10=
EXTT11=
EXTT12=
PLAYORDER=
